<?xml version="1.0" encoding="UTF-8"?>
<svg id="uuid-9286a478-d070-4e90-a5c4-5cfa7fb14ff1" data-name="Layer 1" xmlns="http://www.w3.org/2000/svg" viewBox="0 0 510.66 511.44">
  <defs>
    <style>
      .uuid-71ae61a3-2de7-425a-b6ca-21d8e73fed80 {
        fill: #5f4000;
      }

      .uuid-71ae61a3-2de7-425a-b6ca-21d8e73fed80, .uuid-3823fb14-4aca-405f-8f10-45d53eded931 {
        stroke: #fff;
        stroke-miterlimit: 10;
        stroke-width: 10px;
      }

      .uuid-3823fb14-4aca-405f-8f10-45d53eded931 {
        fill: #fff;
      }
    </style>
  </defs>
  <path class="uuid-71ae61a3-2de7-425a-b6ca-21d8e73fed80" d="M383.82,387.94c-10.01,8.95-23.33,14.4-38.06,14.4H60.81c-30.85,0-55.81-24.99-55.81-55.88,0-27.84,20.32-50.71,46.99-54.98-13.38-10.21-22.16-26.19-22.16-44.35,0-30.89,25.03-55.88,55.88-55.88h10.85c-10.47-9.15-17.06-22.35-17.06-37.25,0-27.45,22.16-49.66,49.62-49.66h12.41c34.27,0,62.13-27.85,62.13-62.09,0-13.48-4.49-25.88-11.76-36.06,3.85-.58,7.81-1.19,11.76-1.19,41.13,0,74.5,33.37,74.5,74.5,0,8.73-1.77,17.08-4.59,24.84h4.57c27.42,0,49.69,22.19,49.69,49.66,0,14.94-6.67,28.13-17.14,37.25h10.93c30.89,0,55.88,24.99,55.88,55.88,0,3.05-.25,6.04-.73,8.95-2.37,14.41-10.35,26.91-21.49,35.39,9.47,1.51,18.14,5.39,25.4,11.02h-19.22v85.45h22.36Z"/>
  <g>
    <path class="uuid-3823fb14-4aca-405f-8f10-45d53eded931" d="M197.14,506.44c-18.19,0-35.67-2.64-52.45-7.91-16.78-5.27-30.26-12.13-40.43-20.57l17.86-42.9c9.53,7.51,21,13.66,34.43,18.46,13.42,4.81,26.96,7.21,40.6,7.21,10.39,0,18.78-1.17,25.17-3.52,6.38-2.34,11.09-5.45,14.13-9.32,3.03-3.87,4.55-8.38,4.55-13.54,0-6.56-2.39-11.78-7.14-15.65-4.76-3.87-11.1-7.03-19-9.49-7.91-2.46-16.51-4.8-25.82-7.03-9.31-2.23-18.67-4.92-28.09-8.09-9.42-3.17-18.08-7.38-25.98-12.66-7.91-5.27-14.18-12.19-18.84-20.75-4.66-8.55-6.98-19.28-6.98-32.17,0-14.07,3.46-26.9,10.39-38.5,6.93-11.6,17.48-20.86,31.67-27.78,14.18-6.91,31.99-10.37,53.42-10.37,14.29,0,28.42,1.88,42.38,5.63,13.96,3.75,26.14,9.14,36.54,16.18l-16.56,42.9c-10.18-6.33-20.68-11.08-31.5-14.24-10.83-3.16-21.22-4.75-31.18-4.75s-18.73,1.23-25.01,3.69c-6.28,2.46-10.88,5.8-13.8,10.02-2.92,4.22-4.38,8.91-4.38,14.07,0,6.57,2.38,11.84,7.14,15.82,4.76,3.99,11.04,7.09,18.84,9.32,7.79,2.23,16.45,4.46,25.98,6.68,9.53,2.23,18.94,4.98,28.26,8.26,9.31,3.29,17.86,7.45,25.66,12.48,7.79,5.04,14.13,11.84,19,20.39,4.87,8.56,7.31,19.16,7.31,31.82,0,13.83-3.52,26.49-10.55,37.98-7.04,11.49-17.7,20.75-31.99,27.78-14.29,7.03-32.15,10.55-53.59,10.55Z"/>
    <path class="uuid-3823fb14-4aca-405f-8f10-45d53eded931" d="M493.64,297.57c-8.01-13.36-19.38-23.61-34.09-30.77-14.73-7.14-32.27-10.72-52.62-10.72h-98.4v246.14h52.93v-67.86h45.47c20.35,0,37.89-3.64,52.62-10.9,14.71-7.27,26.08-17.53,34.09-30.77s12.02-29.13,12.02-47.65-4.01-34.11-12.02-47.47Zm-53.26,79.12c-8.22,7.5-20.35,11.25-36.37,11.25h-42.55v-85.45h42.55c16.02,0,28.15,3.7,36.37,11.08,8.23,7.38,12.35,17.88,12.35,31.47s-4.12,24.15-12.35,31.65Z"/>
    <path class="uuid-71ae61a3-2de7-425a-b6ca-21d8e73fed80" d="M452.73,345.04c0,13.6-4.12,24.15-12.35,31.65-8.22,7.5-20.35,11.25-36.37,11.25h-42.55v-85.45h42.55c16.02,0,28.15,3.7,36.37,11.08,8.23,7.38,12.35,17.88,12.35,31.47Z"/>
  </g>
</svg>